HIERARCHY
ROOT pelvis
{
  OFFSET 0 100 0
  CHANNELS 6 Xposition Yposition Zposition Zrotation Xrotation Yrotation
  JOINT pelvis_right_femur
  {
    OFFSET -10.78128 -3.44521 -0.5502486
    CHANNELS 3 Zrotation Xrotation Yrotation
    JOINT right_femur_tibia
    {
      OFFSET -0.8047443 -44.0398 -0.1307829
      CHANNELS 3 Zrotation Xrotation Yrotation
      JOINT right_tibia_foot
      {
        OFFSET 3.006224 -47.83518 -5
        CHANNELS 3 Zrotation Xrotation Yrotation
        End Site
        {
          OFFSET 0 -5 15
        }
      }
    }
  }
  JOINT pelvis_left_femur
  {
    OFFSET 10.78128 -3.44521 -0.5502486
    CHANNELS 3 Zrotation Xrotation Yrotation
    JOINT left_femur_tibia
    {
      OFFSET 0.8047443 -44.0398 -0.1307829
      CHANNELS 3 Zrotation Xrotation Yrotation
      JOINT left_tibia_foot
      {
        OFFSET -4.370144 -48.10324 -4.275266
        CHANNELS 3 Zrotation Xrotation Yrotation
        End Site
        {
          OFFSET 0 -5 15
        }
      }
    }
  }
  JOINT pelvis_spine1
  {
    OFFSET 0 6.468898 -3.129235
    CHANNELS 3 Zrotation Xrotation Yrotation
    JOINT spine1
    {
      OFFSET 0 23.15396 4.99043
      CHANNELS 3 Zrotation Xrotation Yrotation
      JOINT spine2
      {
        OFFSET 0 20.79997 -5.064912
        CHANNELS 3 Zrotation Xrotation Yrotation
        JOINT neck
        {
          OFFSET 0 14.38658 9.616178
          CHANNELS 3 Zrotation Xrotation Yrotation
          End Site
          {
            OFFSET 0 20 0
          }
        }
      }
      JOINT right_manubrium
      {
        OFFSET -5.722621 16.35077 3.967754
        CHANNELS 3 Zrotation Xrotation Yrotation
        JOINT right_clavicle
        {
          OFFSET -13.16364 1.694482 -4.693211
          CHANNELS 3 Zrotation Xrotation Yrotation
          JOINT right_humerus
          {
            OFFSET -28.5034 -0.3100689 -2.792744
            CHANNELS 3 Zrotation Xrotation Yrotation
            JOINT right_radius
            {
              OFFSET -25.15693 0.02248979 -1.271978
              CHANNELS 3 Zrotation Xrotation Yrotation
              End Site
              {
                OFFSET -15 0 0
              }
            }
          }
        }
      }
      JOINT left_manubrium
      {
        OFFSET 5.722621 16.35077 3.967754
        CHANNELS 3 Zrotation Xrotation Yrotation
        JOINT left_clavicle
        {
          OFFSET 13.16364 1.694482 -4.693211
          CHANNELS 3 Zrotation Xrotation Yrotation
          JOINT left_humerus
          {
            OFFSET 29.39168 -1.063119 -2.237045
            CHANNELS 3 Zrotation Xrotation Yrotation
            JOINT left_radius
            {
              OFFSET 24.59957 -0.9528479 0.9047498
              CHANNELS 3 Zrotation Xrotation Yrotation
              End Site
              {
                OFFSET 15 -0 -0
              }
            }
          }
        }
      }
    }
  }
}
MOTION
Frames: 19
Frame Time: 0.0416666666667
0 103.5113 0 0.5338909 1.626666 -0.028375 4.190021 -18.37594 10.10579 -0 36.69401 -0 -4.403796 -15.16754 -2.858535 -6.846533 7.643548 -21.21559 -0 7.442492 -0 9.466915 -18.62696 25.8143 -4.210777 -5.030002 5.30611 3.296164 9.396798 -8.766189 1.35273 20.81202 6.254415 2.762484 -25.27997 9.246726 7.551003 -19.28251 12.11585 83.36374 34.84809 -18.3226 -0 0 18.9441 -8.337107 9.925364 3.995702 7.614382 -19.90635 1.953366 -95.24666 20.04809 22.73536 0 0 -7.411076 13.97164 19.09559 -4.054331
0.3917688 103.2774 1.818094 0.2526236 1.806842 0.0157352 4.541797 -19.93102 9.499679 -0 34.91761 -0 -4.847288 -14.12173 -2.629564 -6.58504 8.216833 -20.90328 -0 7.562369 -0 8.903231 -19.12955 25.12081 -3.995975 -4.661844 5.074345 3.406756 9.340658 -8.759619 1.342202 20.68405 6.489876 2.906101 -25.67079 9.384972 7.172264 -19.18922 12.07118 83.75816 34.45208 -18.54672 -0 0 18.48302 -8.45001 9.817071 4.133585 7.702768 -20.12987 1.794235 -94.88674 20.16694 22.12419 0 0 -8.332675 13.73701 18.50591 -3.83193
0.6794646 101.1435 7.001651 -2.265766 1.133936 0.4122884 5.670593 -37.62449 1.354451 -0 7.524587 -0 -7.861755 1.928239 -0.7556753 -4.453788 18.02384 -12.17356 -0 1.427847 -0 -0.1337816 -24.94978 16.69302 -0.4497412 0.02933782 3.246684 3.333032 11.51537 -9.641004 0.3991577 18.72379 9.343481 4.031243 -28.98768 10.50197 -0.4895532 -20.28713 10.92006 94.27324 28.51869 -25.01827 -0 0 9.531426 -14.58204 8.911466 7.38864 9.339177 -26.98078 -3.106418 -85.53552 18.15903 11.41826 0 0 -32.37975 12.16345 7.007211 -0.9067494
0.989703 100.0177 12.24824 -1.857948 4.314463 1.052114 7.774682 -38.60394 4.458641 -0 8.393349 -0 -6.141194 0.6144951 -0.3864388 -5.670082 16.17458 -14.43025 -0 8.567483 -0 4.730295 -22.40081 18.98427 -1.487023 -0.5414188 3.788154 3.861299 10.90718 -9.133796 0.7709205 18.2353 9.229714 4.543905 -29.01165 10.73729 3.021607 -19.00803 11.60107 91.1884 34.48761 -24.65216 -0 0 9.629683 -10.64852 9.73938 6.493141 8.713091 -24.84884 -2.280391 -86.35639 19.04161 13.4074 0 0 -31.82451 13.99662 6.70362 -2.11874
1.384079 99.05722 17.96614 -1.139994 5.659776 1.786189 9.420253 -39.62353 7.161179 -0 6.273695 -0 -4.48837 0.7027805 -0.8991824 -7.244864 16.73662 -14.31307 -0 11.21647 -0 8.39718 -20.27429 21.54347 -1.809022 -0.1756364 4.432461 3.525044 11.25411 -8.679833 0.7868626 18.03513 9.099534 4.43131 -28.85089 11.03438 3.938385 -18.92042 11.3894 92.71439 39.39842 -26.65827 -0 0 7.11553 -7.97759 9.835933 5.892202 7.877573 -24.35626 -3.539277 -84.64005 20.27549 13.71922 0 0 -39.09715 15.50296 3.716336 -1.289982
1.854263 98.44135 23.62921 -0.5159493 6.567421 2.734548 11.06495 -39.34069 10.28203 -0 7.061927 -0 -3.88979 -1.70609 -1.553538 -8.517023 16.83338 -15.29344 -0 11.83968 -0 11.98665 -18.44372 24.50214 -2.175218 0.2126534 4.827892 3.2076 10.9788 -8.027546 0.8306758 18.35822 8.700538 3.972077 -29.17889 11.45812 4.634659 -19.19206 10.90408 94.07406 43.39653 -27.951 -0 0 5.653714 -4.797168 9.329248 5.172675 6.683707 -22.92346 -4.522937 -84.61175 23.18981 15.66821 0 0 -43.21526 15.88203 2.222851 1.04489
2.424662 97.86206 29.29306 -0.5834955 7.353444 3.908375 12.04024 -39.1396 11.92084 -0 7.248528 -0 -4.109305 -3.44669 -1.965247 -8.734714 17.66231 -15.45572 -0 9.515619 -0 12.03637 -18.42085 24.64655 -2.007665 0.2413068 4.721002 3.155369 10.40956 -8.040443 0.5518025 18.2702 8.579978 3.589306 -30.1816 11.67537 4.509602 -19.63727 10.42112 95.41629 44.42281 -29.24291 -0 0 5.452494 -3.690943 9.088767 5.076347 6.188379 -22.05384 -4.656543 -85.63339 25.06734 17.77576 0 0 -44.06638 14.9477 1.655812 3.172678
3.105749 97.28105 34.8739 -0.9289215 7.863957 5.23969 12.27889 -38.64406 12.22052 -0 7.946439 -0 -4.61432 -4.25527 -2.196251 -8.422717 17.84467 -15.52166 -0 8.257477 -0 10.53833 -19.01032 23.14972 -1.840772 0.208835 4.342639 3.331691 9.667536 -8.200822 0.2985298 18.17738 8.513207 3.43526 -31.05564 11.58061 4.57896 -19.65282 10.31476 95.41103 44.05131 -29.4853 -0 0 6.053968 -3.711453 9.188104 5.291834 5.891402 -21.09205 -4.415253 -87.42754 26.32367 19.92583 0 0 -41.42943 13.21531 2.228127 4.946725
3.887721 96.6435 40.35503 -1.443794 7.925176 6.636247 11.65899 -37.66976 11.0568 -0 8.670932 -0 -5.203646 -4.162613 -2.360185 -7.624715 17.62145 -15.33441 -0 8.255025 -0 7.319976 -19.84315 19.93271 -1.646871 0.08969248 3.732785 3.673357 8.845757 -8.479935 0.1062885 18.15869 8.424145 3.437007 -31.42182 11.07756 4.815771 -19.11487 10.53865 94.1888 42.37233 -28.77671 -0 0 7.102568 -4.810144 9.662857 5.775675 5.795225 -20.23288 -3.979077 -89.43049 26.89544 21.50429 0 0 -36.19845 10.69116 3.853053 6.549849
4.737493 95.94666 45.73959 -1.90067 7.377265 7.958314 10.40602 -36.13992 8.862285 -0 9.324152 -0 -5.619026 -3.519351 -2.578255 -6.59537 17.03982 -14.98132 -0 9.999436 -0 3.2984 -20.21935 15.93912 -1.507044 -0.03574906 3.04515 4.062265 8.122276 -8.690477 0.08863754 18.38049 8.191463 3.489175 -30.91103 10.22105 5.255895 -18.03371 10.97007 92.09373 39.99129 -27.28867 -0 0 8.088246 -6.460711 10.36471 6.397272 5.74956 -19.55858 -3.646557 -90.9457 27.037 21.96951 0 0 -30.09421 7.767238 6.147993 8.242745
5.608978 95.25962 51.10826 -2.231742 6.147736 9.045125 8.859017 -33.84136 6.136144 -0 10.13745 -0 -5.788994 -2.688699 -2.943005 -5.397926 16.22451 -14.41871 -0 14.22921 -0 -1.156396 -19.50986 11.69444 -1.361099 -0.1862893 2.346967 4.428054 7.59442 -8.763055 0.2955396 18.89759 7.741701 3.523004 -29.32431 9.066961 5.891133 -16.41646 11.46834 89.44795 37.18041 -25.21546 -0 0 8.695678 -8.35736 11.21468 7.071467 5.649992 -19.17296 -3.477959 -91.55213 26.88009 20.96031 0 0 -24.19039 4.650211 8.795808 10.17209
6.463283 94.72375 56.56463 -2.316122 4.349803 9.760302 7.489008 -30.75893 3.662749 -0 11.12975 -0 -5.598087 -2.021883 -3.49426 -4.265789 15.07855 -13.66237 -0 21.07558 -0 -5.107592 -17.53264 8.25304 -1.215123 -0.2878802 1.82092 4.672784 7.385367 -8.623089 0.7055058 19.6617 7.080844 3.512634 -26.90486 7.81854 6.642225 -14.58409 11.8975 86.80069 34.45768 -22.9657 -0 0 8.745615 -10.14043 12.06882 7.726618 5.382072 -19.02836 -3.572865 -91.24267 26.64202 18.86631 0 0 -19.6642 1.701568 11.12861 12.41552
7.277259 94.50771 62.21389 -2.082909 2.081583 10.00608 6.541872 -26.73547 1.97058 -0 12.18885 -0 -4.938883 -1.656207 -4.217782 -3.352315 13.33104 -12.6017 -0 30.56973 -0 -8.100101 -14.43029 6.270156 -1.062234 -0.304656 1.664392 4.707503 7.622462 -8.277494 1.241675 20.54236 6.280292 3.474224 -23.99451 6.633354 7.379945 -12.90921 12.2143 84.56447 32.07524 -20.87782 -0 0 8.308126 -11.80707 12.86161 8.359235 4.940225 -19.11251 -3.921698 -90.2061 26.27238 16.22698 0 0 -17.06213 -0.7355682 12.60013 14.72439
8.048345 94.75201 68.11087 -1.484151 -0.4582087 9.760216 6.088516 -21.71224 1.476249 -0 13.00678 -0 -3.718979 -1.630767 -5.03171 -2.798871 10.62514 -11.11985 -0 41.73952 -0 -9.872542 -10.78115 6.204386 -0.9254811 -0.2135132 2.102762 4.431067 8.412972 -7.792791 1.75087 21.31011 5.510557 3.427261 -21.1594 5.693269 7.868554 -11.93493 12.4387 83.20078 30.2241 -19.355 -0 0 7.742214 -13.53798 13.51166 9.00711 4.424929 -19.41166 -4.436794 -88.83501 25.61283 13.87725 0 0 -16.63323 -2.200031 12.70062 16.5323
8.781313 95.48092 74.20724 -0.5541195 -3.017295 9.096662 5.952523 -15.76137 2.250798 -0 13.36326 -0 -2.107984 -2.105213 -5.789965 -2.592407 6.684182 -9.244538 -0 52.51112 -0 -10.5003 -7.47405 8.048987 -0.8597632 -0.00695319 3.208341 3.792838 9.660279 -7.239723 2.083301 21.79656 4.955179 3.359454 -18.93271 5.151527 7.82216 -12.07989 12.6034 82.95545 28.85536 -18.55507 -0 0 7.640821 -15.50221 13.89167 9.658796 4.017253 -19.84118 -4.889951 -87.68812 24.61291 12.60036 0 0 -17.84526 -2.409128 11.39794 17.18065
9.462741 96.52373 80.32149 0.4776701 -5.265995 8.173927 5.819952 -9.457533 3.715975 -0 13.38212 -0 -0.8425485 -3.514363 -6.254217 -2.488362 1.696069 -7.403613 -0 59.7954 -0 -10.29635 -5.499702 11.07085 -0.9310179 0.3428088 4.623118 2.917859 10.8221 -6.59695 2.241813 22.12925 4.64371 3.206479 -17.51147 5.070756 7.082819 -13.18394 12.64509 83.43836 27.65885 -17.93996 -0 0 8.505989 -17.37514 13.80627 10.12891 3.865323 -20.09037 -4.975622 -87.36658 23.70466 12.65765 0 0 -19.0715 -1.724981 9.599433 16.54476
10.0612 97.55312 86.23322 1.238383 -6.960115 7.146931 5.513374 -3.659326 4.756325 -0 13.60852 -0 -0.8012793 -6.210304 -6.229271 -2.172562 -3.644756 -6.205322 -0 61.47833 -0 -9.628432 -5.180811 14.03104 -1.154043 0.8546516 5.65094 2.094266 11.16229 -5.749882 2.443094 22.75363 4.341649 2.890105 -16.45947 5.308659 5.864036 -14.36012 12.42467 83.57068 26.39236 -16.33602 -0 0 10.21336 -18.36985 13.16549 10.16796 3.928824 -19.73983 -4.58157 -88.049 23.60969 13.4182 0 0 -18.47285 -0.999553 8.873314 15.3081
10.58879 98.28879 91.87187 1.513631 -7.951987 6.126006 5.096466 1.174662 4.74913 -0 14.61355 -0 -1.795639 -9.591342 -5.74219 -1.565673 -8.765019 -5.725282 -0 57.85331 -0 -8.697155 -5.819412 16.08947 -1.436357 1.390862 5.989028 1.503472 10.58836 -4.757776 2.778744 23.75827 3.895599 2.456495 -15.3639 5.58619 4.669196 -15.01274 11.9999 82.682 25.32968 -13.31829 -0 0 12.2672 -18.36947 12.20799 9.956955 4.027018 -18.74925 -3.950974 -89.28589 24.31977 14.29158 0 0 -15.89123 -0.6591494 9.738646 14.2473
11.13861 98.63669 97.38033 1.425015 -8.164266 5.208419 4.611813 5.280972 4.07733 -0 16.5546 -0 -2.632308 -12.43788 -4.90797 -0.7916757 -13.64606 -5.428788 -0 50.59839 -0 -7.53114 -6.469851 17.23935 -1.673699 1.687125 6.003712 1.069068 9.727811 -3.889063 3.04448 24.62834 3.4724 2.077685 -14.38509 5.701667 3.877121 -15.47348 11.62822 81.02996 24.92745 -9.66122 -0 0 14.49189 -18.29413 11.35848 10.07937 4.031572 -17.52783 -3.407715 -90.43441 24.97774 15.41738 0 0 -12.77293 -0.5544563 11.11312 13.61855
